<svg width="196" height="20" viewBox="0 0 196 20" fill="none" xmlns="http://www.w3.org/2000/svg">
    <path d="M65.7345 7.25009V4.85596H51.0129V7.5748H60.5748L50.2296 17.197V19.5653H66.2751V16.8485H55.6056L65.7345 7.25009Z" fill="white"/>
    <path d="M85.697 14.3823C85.6937 14.3997 85.6883 14.4156 85.685 14.432H85.697V14.3823Z" fill="white"/>
    <path d="M84.7069 7.93599C83.9956 6.79795 82.9191 5.8917 81.626 5.34227C78.4648 4.13228 74.913 4.12728 71.7478 5.32837C70.4173 5.88109 69.297 6.78944 68.5318 7.93599C67.7526 9.1544 67.3597 10.5502 67.3978 11.9646V12.1632C67.3479 13.6459 67.7402 15.1128 68.5318 16.4038C69.2909 17.5702 70.411 18.5002 71.7478 19.074C73.2645 19.7139 74.9185 20.0289 76.5858 19.9955C78.2051 20.0323 79.8178 19.7916 81.3419 19.2855C82.5219 18.9003 83.5641 18.2229 84.3546 17.3273C85.0501 16.4793 85.506 15.4849 85.6812 14.4337H81.747V14.4094C81.657 14.8217 81.4731 15.2117 81.2075 15.5535C80.9419 15.8952 80.6006 16.181 80.2063 16.3919C79.1139 16.9366 77.8793 17.1913 76.6396 17.1277C75.6673 17.1518 74.7018 16.9725 73.8152 16.6034C73.0385 16.2613 72.4066 15.6912 72.0184 14.9823C71.691 14.3832 71.4926 13.7312 71.4342 13.0624H85.7441V11.9388C85.7812 10.544 85.4237 9.16439 84.7069 7.93599ZM72.0189 9.40763C72.4168 8.71421 73.0472 8.15823 73.8158 7.82279C74.7025 7.45438 75.668 7.27582 76.6401 7.30047C77.6424 7.27555 78.6385 7.45385 79.558 7.82279C80.3096 8.12242 80.9356 8.63899 81.3419 9.29492C81.6211 9.7677 81.8035 10.2839 81.8799 10.8177H71.5132C71.599 10.3257 71.7697 9.84966 72.0189 9.40763Z" fill="white"/>
    <path d="M145.949 14.3774C145.949 14.3948 145.941 14.4107 145.937 14.4271H145.949V14.3774Z" fill="white"/>
    <path d="M144.964 7.9311C144.253 6.7936 143.176 5.88764 141.884 5.33788C138.722 4.12724 135.17 4.12224 132.005 5.32397C130.675 5.87666 129.554 6.7848 128.789 7.9311C128.01 9.14981 127.617 10.5457 127.655 11.9602V12.1588C127.605 13.6417 127.997 15.1086 128.789 16.3999C129.548 17.5661 130.669 18.4959 132.005 19.0696C133.522 19.7097 135.176 20.0248 136.843 19.9911C138.462 20.0281 140.075 19.7875 141.599 19.2816C142.779 18.8961 143.821 18.2187 144.612 17.3234C145.308 16.4755 145.763 15.481 145.938 14.4298H142.004V14.4055C141.914 14.8172 141.729 15.2065 141.464 15.5477C141.198 15.8888 140.857 16.1741 140.463 16.3845C139.371 16.9297 138.136 17.1846 136.896 17.1209C135.924 17.1449 134.959 16.9657 134.072 16.5965C133.295 16.2543 132.663 15.684 132.275 14.975C131.949 14.3767 131.752 13.7256 131.694 13.058H146.004V11.9344C146.04 10.5393 145.682 9.15955 144.964 7.9311ZM132.276 9.40323C132.674 8.70967 133.304 8.15366 134.073 7.8184C134.96 7.44994 135.925 7.27137 136.897 7.29608C137.9 7.27117 138.896 7.44946 139.816 7.8184C140.567 8.11803 141.193 8.63459 141.599 9.29052C141.878 9.76334 142.06 10.2793 142.137 10.8128H131.771C131.856 10.321 132.027 9.84503 132.276 9.40323Z" fill="white"/>
    <path d="M118.937 16.2493L118.803 16.8724H118.749L118.532 16.2493L114.669 4.85107H110.048L106.13 16.2493L105.914 16.8724H105.859L105.751 16.2493L102.049 4.85107H97.8608L103.211 19.5659H108.183L112.183 8.09323L112.291 7.69404H112.344L112.452 8.09323L116.479 19.5659H121.478L126.828 4.85107H122.639L118.937 16.2493Z" fill="white"/>
    <path d="M181.038 4.69942H176.563L171.978 10.3173H168.075V0.292969H164.145V19.5597H168.075V13.0863H171.896L176.944 19.5597H181.557L175.225 11.7264L181.038 4.69942Z" fill="white"/>
    <path d="M24.8054 4.85718H20.8621V19.5645H24.8054V4.85718Z" fill="white"/>
    <path d="M24.8054 0H20.8621V3.0649H24.8054V0Z" fill="white"/>
    <path d="M4.37584 11.5107H16.4473V8.64294H4.37584V4.15755H17.5287V1.0415H0V19.5615H17.69V16.4703H4.37584V11.5107Z" fill="white"/>
    <path d="M93.0273 15.148V0.298096H89.1001V15.0353C89.1001 17.5361 91.7362 19.5653 94.9914 19.5653H97.4456V16.5064H94.9914C93.9074 16.5064 93.0273 15.8992 93.0273 15.148Z" fill="white"/>
    <path d="M40.0956 4.41895H40.003C38.4209 4.41895 36.7166 4.52371 35.1102 5.38365C34.3101 5.76077 33.6337 6.3283 33.1509 7.02756C32.9782 7.35823 32.5366 8.30407 32.5366 8.30407L32.0906 8.13377L32.9051 6.41786C33.0535 6.12649 33.1521 5.81562 33.1972 5.49635C33.2123 5.35485 33.2279 5.19845 33.2279 5.05695V4.84594H29.2469V19.5647H33.1956V12.8009C33.1854 11.8996 33.3953 11.0078 33.8099 10.1918C34.2193 9.37992 34.8691 8.69144 35.6842 8.20576C36.6244 7.67118 37.7148 7.40484 38.8184 7.44016C40.3855 7.44016 41.5535 7.82296 42.3368 8.57417C43.105 9.32587 43.4891 10.4743 43.4891 12.006V19.5647H47.4071V11.5815C47.4071 9.15656 46.7772 7.35575 45.4866 6.17904C44.196 5.00233 42.4002 4.41895 40.0956 4.41895Z" fill="white"/>
    <path d="M155.206 5.38486C154.423 5.76586 153.757 6.3233 153.27 7.00544C153.27 7.02381 153.249 7.02381 153.249 7.04268C153.088 7.35895 152.644 8.30925 152.644 8.30925L152.194 8.14292L153.001 6.4295C153.134 6.15609 153.229 5.86811 153.283 5.57254C153.299 5.55076 153.307 5.52434 153.304 5.49806C153.304 5.36748 153.324 5.20016 153.324 5.06958V4.84615H149.348V19.559H153.304V12.7981C153.3 12.6427 153.307 12.4871 153.324 12.3324C153.367 11.5903 153.566 10.863 153.909 10.1905C154.321 9.38275 154.972 8.69845 155.786 8.21591C156.722 7.67892 157.812 7.41296 158.914 7.45229C159.807 7.46706 160.698 7.54591 161.578 7.68813V4.62124C160.997 4.49067 160.4 4.42812 159.802 4.43505C158.206 4.36704 156.619 4.69501 155.206 5.38486Z" fill="white"/>
    <path d="M189.723 10.6836H186.585V13.5797H189.723V10.6836Z" fill="white"/>
    <path d="M192.86 13.5803H189.722V16.4764H192.86V13.5803Z" fill="white"/>
    <path d="M196.001 16.4771H192.863V19.3731H196.001V16.4771Z" fill="white"/>
    <path d="M192.86 7.78809H189.722V10.6842H192.86V7.78809Z" fill="white"/>
    <path d="M196.001 4.89136H192.863V7.78745H196.001V4.89136Z" fill="white"/>
</svg>
